<svg width="21" height="20" viewBox="0 0 21 20" fill="none" xmlns="http://www.w3.org/2000/svg">
<path d="M4.66667 8.3335C3.75 8.3335 3 9.0835 3 10.0002C3 10.9168 3.75 11.6668 4.66667 11.6668C5.58333 11.6668 6.33333 10.9168 6.33333 10.0002C6.33333 9.0835 5.58333 8.3335 4.66667 8.3335ZM16.3333 8.3335C15.4167 8.3335 14.6667 9.0835 14.6667 10.0002C14.6667 10.9168 15.4167 11.6668 16.3333 11.6668C17.25 11.6668 18 10.9168 18 10.0002C18 9.0835 17.25 8.3335 16.3333 8.3335ZM10.5 8.3335C9.58333 8.3335 8.83333 9.0835 8.83333 10.0002C8.83333 10.9168 9.58333 11.6668 10.5 11.6668C11.4167 11.6668 12.1667 10.9168 12.1667 10.0002C12.1667 9.0835 11.4167 8.3335 10.5 8.3335Z" fill="#777E91"/>
</svg>
