<svg width="21" height="20" viewBox="0 0 21 20" fill="none" xmlns="http://www.w3.org/2000/svg">
<path fill-rule="evenodd" clip-rule="evenodd" d="M7.99882 8.36663C8.02332 8.82621 7.67061 9.21864 7.21103 9.24314C6.58379 9.27658 6.087 9.31748 5.69878 9.35843C5.17743 9.41341 4.86065 9.73365 4.80799 10.1943C4.73238 10.8557 4.66667 11.8565 4.66667 13.3334C4.66667 14.8103 4.73238 15.8111 4.80799 16.4725C4.86074 16.934 5.17672 17.2533 5.69729 17.3082C6.60898 17.4045 8.11604 17.5001 10.5 17.5001C12.884 17.5001 14.391 17.4045 15.3027 17.3082C15.8233 17.2533 16.1393 16.934 16.192 16.4725C16.2676 15.8111 16.3333 14.8103 16.3333 13.3334C16.3333 11.8565 16.2676 10.8557 16.192 10.1943C16.1394 9.73365 15.8226 9.41341 15.3012 9.35843C14.913 9.31748 14.4162 9.27658 13.789 9.24314C13.3294 9.21864 12.9767 8.82621 13.0012 8.36663C13.0257 7.90704 13.4181 7.55434 13.8777 7.57884C14.5301 7.61362 15.0558 7.65663 15.476 7.70095C16.713 7.83141 17.6997 8.70899 17.8479 10.005C17.9323 10.7436 18 11.8097 18 13.3334C18 14.8571 17.9323 15.9232 17.8479 16.6618C17.6998 17.9571 16.7154 18.8351 15.4776 18.9657C14.4933 19.0696 12.9257 19.1667 10.5 19.1667C8.07435 19.1667 6.50672 19.0696 5.52236 18.9657C4.28459 18.8351 3.30017 17.9571 3.15211 16.6618C3.06767 15.9232 3 14.8571 3 13.3334C3 11.8097 3.06767 10.7436 3.15211 10.005C3.30026 8.70899 4.28697 7.83141 5.52397 7.70095C5.94422 7.65663 6.46994 7.61362 7.1223 7.57884C7.58189 7.55434 7.97432 7.90704 7.99882 8.36663Z" fill="#777E91"/>
<path fill-rule="evenodd" clip-rule="evenodd" d="M8.17259 5.17275C7.84715 5.49819 7.31951 5.49819 6.99408 5.17275C6.66864 4.84732 6.66864 4.31968 6.99408 3.99424L9.91074 1.07757C10.2362 0.752137 10.7638 0.752137 11.0893 1.07757L14.0059 3.99424C14.3314 4.31968 14.3314 4.84732 14.0059 5.17275C13.6805 5.49819 13.1528 5.49819 12.8274 5.17275L11.3333 3.67867V11.6668C11.3333 12.1271 10.9602 12.5002 10.5 12.5002C10.0398 12.5002 9.66667 12.1271 9.66667 11.6668V3.67867L8.17259 5.17275Z" fill="#777E91"/>
</svg>
