<svg width="12" height="9" viewBox="0 0 12 9" fill="none" xmlns="http://www.w3.org/2000/svg">
<path d="M4.00041 3.33317C4.73679 3.33317 5.33374 2.73622 5.33374 1.99984C5.33374 1.26346 4.73679 0.666504 4.00041 0.666504C3.26403 0.666504 2.66707 1.26346 2.66707 1.99984C2.66707 2.73622 3.26403 3.33317 4.00041 3.33317Z" fill="#FCFCFD"/>
<path d="M10.0813 4.47137L11.2775 5.66758C11.2362 6.29172 11.176 6.87085 11.1095 7.38521L9.13848 5.41418C8.87813 5.15382 8.45602 5.15383 8.19567 5.41417L6.74795 6.86189C5.9669 7.64294 4.70057 7.64294 3.91952 6.86189L3.80514 6.74751C3.54479 6.48716 3.12268 6.48716 2.86233 6.74751L1.25629 8.35355C1.07024 8.10129 0.945757 7.79854 0.901578 7.46403C0.877485 7.28161 0.854105 7.09069 0.832031 6.89219L1.91953 5.8047C2.70057 5.02365 3.9669 5.02365 4.74795 5.8047L4.86233 5.91908C5.12268 6.17943 5.54479 6.17943 5.80514 5.91908L7.25286 4.47136C8.03391 3.69032 9.30024 3.69032 10.0813 4.47137Z" fill="#FCFCFD"/>
</svg>
