<svg width="13" height="13" viewBox="0 0 13 13" fill="none" xmlns="http://www.w3.org/2000/svg">
<path fill-rule="evenodd" clip-rule="evenodd" d="M9.13807 2.08084C8.87772 1.82049 8.45561 1.82049 8.19526 2.08084L7.6095 2.66661L10 5.05713L10.5858 4.47137C10.8461 4.21102 10.8461 3.78891 10.5858 3.52856L9.13807 2.08084ZM2.6095 7.66661L6.66669 3.60942L9.05721 5.99994L5.00002 10.0571L2.6095 7.66661ZM1.66669 8.60942L1.33333 8.94277V11.3333H3.72386L4.05721 10.9999L1.66669 8.60942ZM7.25245 1.13803C8.0335 0.356984 9.29983 0.356984 10.0809 1.13803L11.5286 2.58575C12.3096 3.3668 12.3096 4.63313 11.5286 5.41418L4.66667 12.2761C4.41662 12.5262 4.07748 12.6666 3.72386 12.6666H1.33333C0.596954 12.6666 0 12.0697 0 11.3333V8.94277C0 8.58915 0.140476 8.25001 0.390524 7.99996L7.25245 1.13803Z" fill="#FCFCFD"/>
</svg>
